<svg id="Layer_1" data-name="Layer 1" xmlns="http://www.w3.org/2000/svg" viewBox="0 0 512.1 477.4"><defs><style>.cls-1{fill:#2d527c;}.cls-2{fill:#cee8fa;}.cls-3{fill:#f0bf5f;}</style></defs><path class="cls-1" d="M303.6,453.1H162.3A129.44,129.44,0,0,1,33,323.8V201.2a14.4,14.4,0,0,1,28.8,0V323.9A100.46,100.46,0,0,0,162.2,424.3H303.5a14.4,14.4,0,0,1,14.4,14.4A14.19,14.19,0,0,1,303.6,453.1Z" transform="translate(0 -17.3)"/><path class="cls-1" d="M387.7,446.7a14.35,14.35,0,0,1-13.6-9.7,14.5,14.5,0,0,1,8.8-18.4,100.58,100.58,0,0,0,67.2-94.8V309.3a14.4,14.4,0,1,1,28.8,0v14.5a129.34,129.34,0,0,1-86.5,122A12.67,12.67,0,0,1,387.7,446.7Z" transform="translate(0 -17.3)"/><path class="cls-2" d="M468.7,248.8H43.3A28.81,28.81,0,0,1,14.5,220h0a28.81,28.81,0,0,1,28.8-28.8H468.8A28.81,28.81,0,0,1,497.6,220h0A28.83,28.83,0,0,1,468.7,248.8Z" transform="translate(0 -17.3)"/><path class="cls-1" d="M468.7,263.2H43.3a43.3,43.3,0,0,1,0-86.6H468.8a43.3,43.3,0,1,1-.1,86.6ZM43.3,205.5a14.4,14.4,0,1,0,0,28.8H468.8a14.4,14.4,0,0,0,0-28.8Z" transform="translate(0 -17.3)"/><circle class="cls-2" cx="113.9" cy="437.7" r="25.2"/><path class="cls-1" d="M113.9,494.7A39.7,39.7,0,1,1,153.6,455,39.73,39.73,0,0,1,113.9,494.7Zm0-50.5A10.8,10.8,0,1,0,124.7,455,10.82,10.82,0,0,0,113.9,444.2Z" transform="translate(0 -17.3)"/><circle class="cls-2" cx="398.1" cy="437.7" r="25.2"/><path class="cls-1" d="M398.1,494.7A39.7,39.7,0,1,1,437.8,455,39.73,39.73,0,0,1,398.1,494.7Zm0-50.5A10.8,10.8,0,1,0,408.9,455,10.82,10.82,0,0,0,398.1,444.2Z" transform="translate(0 -17.3)"/><path class="cls-3" d="M323.4,88.7H188.6a14.4,14.4,0,0,1,0-28.8H323.5a14.4,14.4,0,1,1-.1,28.8Z" transform="translate(0 -17.3)"/><path class="cls-3" d="M328.1,116.8a14.4,14.4,0,0,1-14.4-14.4V31.7a14.4,14.4,0,1,1,28.8,0v70.7A14.34,14.34,0,0,1,328.1,116.8Z" transform="translate(0 -17.3)"/><path class="cls-3" d="M354.1,46.2H302.2a14.4,14.4,0,1,1,0-28.8h51.9a14.4,14.4,0,0,1,0,28.8Z" transform="translate(0 -17.3)"/><path class="cls-3" d="M183.9,116.8a14.4,14.4,0,0,1-14.4-14.4V31.7a14.4,14.4,0,0,1,28.8,0v70.7A14.34,14.34,0,0,1,183.9,116.8Z" transform="translate(0 -17.3)"/><path class="cls-3" d="M209.8,46.2H157.9a14.4,14.4,0,0,1,0-28.8h51.9a14.4,14.4,0,0,1,0,28.8Z" transform="translate(0 -17.3)"/><path class="cls-3" d="M256,150a14.4,14.4,0,0,1-14.4-14.4V75.7a14.4,14.4,0,1,1,28.8,0v59.9A14.4,14.4,0,0,1,256,150Z" transform="translate(0 -17.3)"/><path class="cls-2" d="M195.7,334.8H118A17.84,17.84,0,0,1,100.2,317V191H213.4V317A17.69,17.69,0,0,1,195.7,334.8Z" transform="translate(0 -17.3)"/><path class="cls-1" d="M195.7,349.3H118a32.24,32.24,0,0,1-32.2-32.2v-126a14.4,14.4,0,0,1,14.4-14.4H213.4a14.4,14.4,0,0,1,14.4,14.4v126A32.16,32.16,0,0,1,195.7,349.3Zm-81-143.8V317.1a3.33,3.33,0,0,0,3.3,3.3h77.7a3.33,3.33,0,0,0,3.3-3.3V205.5Z" transform="translate(0 -17.3)"/></svg>