<svg id="Layer_1" data-name="Layer 1" xmlns="http://www.w3.org/2000/svg" viewBox="0 0 512 502"><defs><style>.cls-1{fill:#cee8fa;}.cls-2{fill:#2d527c;}.cls-3{fill:#f0bf5f;}</style></defs><path class="cls-1" d="M312,380.7H84.6V272a69.69,69.69,0,0,1,69.7-69.7H312V380.7Z" transform="translate(0 -5)"/><path class="cls-2" d="M312,395.2H84.6a14.51,14.51,0,0,1-14.5-14.5V272a84.33,84.33,0,0,1,84.2-84.2H312a14.51,14.51,0,0,1,14.5,14.5V380.7A14.51,14.51,0,0,1,312,395.2Zm-212.9-29H297.4V216.9H154.2A55.14,55.14,0,0,0,99.1,272Z" transform="translate(0 -5)"/><path class="cls-3" d="M461.9,265.8H50.1A50.21,50.21,0,0,1,0,215.6V170.5a50.19,50.19,0,0,1,50.1-50.1H153.8a14.5,14.5,0,0,1,0,29H50.1A21.17,21.17,0,0,0,29,170.5v45.1a21.17,21.17,0,0,0,21.1,21.1H461.8a21.17,21.17,0,0,0,21.1-21.1V170.5a21.17,21.17,0,0,0-21.1-21.1H256a14.5,14.5,0,0,1,0-29H461.9A50.19,50.19,0,0,1,512,170.5v45.1A50.21,50.21,0,0,1,461.9,265.8Z" transform="translate(0 -5)"/><path class="cls-3" d="M256,148.6a14.54,14.54,0,0,1-8.7-26.2c13.7-10.2,42.1-37,42.1-54.9,0-19.4-14.1-33.4-33.4-33.4a33.46,33.46,0,0,0-33.4,33.4,14.5,14.5,0,1,1-29,0V66.2a4.87,4.87,0,0,1,.1-1.2A62.32,62.32,0,0,1,256,5c35.6,0,62.5,26.9,62.5,62.5,0,37.4-48.3,74.2-53.9,78.3A14.48,14.48,0,0,1,256,148.6Z" transform="translate(0 -5)"/><path class="cls-2" d="M363.3,475.2H171a14.51,14.51,0,0,1-14.5-14.5V380.8A14.51,14.51,0,0,1,171,366.3H427.5a14.5,14.5,0,0,1,0,29h-242v50.9H363.3a14.5,14.5,0,0,1,0,29Z" transform="translate(0 -5)"/><path class="cls-1" d="M427.4,380.7V260.4a58.08,58.08,0,0,0-58.1-58.1H171V380.7Z" transform="translate(0 -5)"/><path class="cls-2" d="M427.4,395.2H171a14.51,14.51,0,0,1-14.5-14.5V202.4A14.51,14.51,0,0,1,171,187.9H369.4A72.72,72.72,0,0,1,442,260.5V380.8A14.58,14.58,0,0,1,427.4,395.2Zm-241.9-29H412.9V260.4a43.53,43.53,0,0,0-43.5-43.5H185.5Z" transform="translate(0 -5)"/><path class="cls-2" d="M171,507a14.51,14.51,0,0,1-14.5-14.5V460.7a14.5,14.5,0,0,1,29,0v31.8A14.51,14.51,0,0,1,171,507Z" transform="translate(0 -5)"/><path class="cls-2" d="M427.4,507a14.51,14.51,0,0,1-14.5-14.5V371.4a14.5,14.5,0,0,1,29,0V492.5A14.45,14.45,0,0,1,427.4,507Z" transform="translate(0 -5)"/><path class="cls-2" d="M363.3,507a14.51,14.51,0,0,1-14.5-14.5V460.7a14.5,14.5,0,0,1,29,0v31.8A14.51,14.51,0,0,1,363.3,507Z" transform="translate(0 -5)"/><path class="cls-2" d="M299.2,507a14.51,14.51,0,0,1-14.5-14.5V460.7a14.5,14.5,0,0,1,29,0v31.8A14.51,14.51,0,0,1,299.2,507Z" transform="translate(0 -5)"/><path class="cls-2" d="M235.1,507a14.51,14.51,0,0,1-14.5-14.5V460.7a14.5,14.5,0,0,1,29,0v31.8A14.51,14.51,0,0,1,235.1,507Z" transform="translate(0 -5)"/></svg>