<svg id="Layer_1" data-name="Layer 1" xmlns="http://www.w3.org/2000/svg" viewBox="0 0 512 438.8"><defs><style>.cls-1{fill:#2d527c;}.cls-2{fill:#cee8fa;}.cls-3{fill:#f0bf5f;}</style></defs><path class="cls-1" d="M465.9,475.3H395.5a13.6,13.6,0,0,1,0-27.2h70.4a19,19,0,0,0,19-19V182.2a19,19,0,0,0-19-19h-328a19,19,0,0,0-19,19V429.3a19,19,0,0,0,19,19h183a13.6,13.6,0,1,1,0,27.2h-183a46.18,46.18,0,0,1-46.1-46.1V182.2a46.18,46.18,0,0,1,46.1-46.1h328A46.18,46.18,0,0,1,512,182.2V429.3A46.16,46.16,0,0,1,465.9,475.3Z" transform="translate(0 -36.7)"/><path class="cls-2" d="M190.7,412h0A23.82,23.82,0,0,1,167,388.3V223.1a23.82,23.82,0,0,1,23.7-23.7h0a23.82,23.82,0,0,1,23.7,23.7V388.3A23.88,23.88,0,0,1,190.7,412Z" transform="translate(0 -36.7)"/><path class="cls-3" d="M190.7,425.5a37.26,37.26,0,0,1-37.2-37.2V223.1a37.2,37.2,0,0,1,74.4,0V388.3A37.26,37.26,0,0,1,190.7,425.5Zm0-212.5a10.07,10.07,0,0,0-10.1,10.1V388.3a10.1,10.1,0,0,0,20.2,0V223.1A10.14,10.14,0,0,0,190.7,213Z" transform="translate(0 -36.7)"/><path class="cls-2" d="M301.9,412h0a23.82,23.82,0,0,1-23.7-23.7V223.1a23.82,23.82,0,0,1,23.7-23.7h0a23.82,23.82,0,0,1,23.7,23.7V388.3A23.75,23.75,0,0,1,301.9,412Z" transform="translate(0 -36.7)"/><path class="cls-3" d="M301.9,425.5a37.26,37.26,0,0,1-37.2-37.2V223.1a37.2,37.2,0,0,1,74.4,0V388.3A37.13,37.13,0,0,1,301.9,425.5Zm0-212.5a10.07,10.07,0,0,0-10.1,10.1V388.3a10.1,10.1,0,0,0,20.2,0V223.1A10.07,10.07,0,0,0,301.9,213Z" transform="translate(0 -36.7)"/><path class="cls-2" d="M413.2,412h0a23.82,23.82,0,0,1-23.7-23.7V223.1a23.82,23.82,0,0,1,23.7-23.7h0a23.82,23.82,0,0,1,23.7,23.7V388.3A23.82,23.82,0,0,1,413.2,412Z" transform="translate(0 -36.7)"/><path class="cls-3" d="M413.2,425.5A37.26,37.26,0,0,1,376,388.3V223.1a37.2,37.2,0,1,1,74.4,0V388.3A37.26,37.26,0,0,1,413.2,425.5Zm0-212.5a10.07,10.07,0,0,0-10.1,10.1V388.3a10.1,10.1,0,1,0,20.2,0V223.1A10.07,10.07,0,0,0,413.2,213Z" transform="translate(0 -36.7)"/><path class="cls-1" d="M105.4,230.5H58.3a13.6,13.6,0,1,1,0-27.2h47.1a13.6,13.6,0,0,1,0,27.2Z" transform="translate(0 -36.7)"/><path class="cls-1" d="M105.4,408H58.3a13.6,13.6,0,1,1,0-27.2h47.1a13.6,13.6,0,0,1,0,27.2Z" transform="translate(0 -36.7)"/><path class="cls-3" d="M47.4,251.5a13.61,13.61,0,0,1-13.6-13.6V92.9a13.6,13.6,0,1,1,27.2,0v145A13.61,13.61,0,0,1,47.4,251.5Z" transform="translate(0 -36.7)"/><path class="cls-1" d="M47.4,475.3a13.61,13.61,0,0,1-13.6-13.6v-156a13.6,13.6,0,0,1,27.2,0v156A13.61,13.61,0,0,1,47.4,475.3Z" transform="translate(0 -36.7)"/><rect class="cls-2" x="13.6" y="13.6" width="67.8" height="73.2"/><path class="cls-1" d="M81.3,137H13.6A13.61,13.61,0,0,1,0,123.4V50.3A13.61,13.61,0,0,1,13.6,36.7H81.4A13.61,13.61,0,0,1,95,50.3v73.2A13.75,13.75,0,0,1,81.3,137ZM27.1,109.9H67.8V63.8H27.1Z" transform="translate(0 -36.7)"/></svg>