<svg id="Layer_1" data-name="Layer 1" xmlns="http://www.w3.org/2000/svg" viewBox="0 0 512.1 468.6"><defs><style>.cls-1{fill:#2d527c;}.cls-2{fill:#f0bf5f;}.cls-3{fill:#cee8fa;}</style></defs><path class="cls-1" d="M298.3,143.4H149a14.5,14.5,0,0,1,0-29H298.3a14.5,14.5,0,0,1,0,29Z" transform="translate(0 -21.7)"/><path class="cls-1" d="M180.9,383.9H134.8C60.5,383.9,0,323.4,0,249.1A134.8,134.8,0,0,1,70,130.9a14.59,14.59,0,0,1,14,25.6,105.7,105.7,0,0,0,50.8,198.4h46.1a14.5,14.5,0,0,1,0,29Z" transform="translate(0 -21.7)"/><path class="cls-2" d="M193.3,490.3C127,490.3,73,436.3,73,369.9a14.5,14.5,0,0,1,29,0A91.26,91.26,0,1,0,127.1,307,14.57,14.57,0,1,1,106,286.9a120.39,120.39,0,0,1,207.7,82.9C313.7,436.2,259.7,490.3,193.3,490.3Z" transform="translate(0 -21.7)"/><path class="cls-2" d="M384.5,355.2H295.7a14.5,14.5,0,0,1,0-29h88.8a14.5,14.5,0,0,1,0,29Z" transform="translate(0 -21.7)"/><path class="cls-2" d="M479.5,413.7H299.1a14.5,14.5,0,0,1,0-29H479.5a3.37,3.37,0,0,0,3.4-3.4V298.7a5,5,0,0,0-5-5H465.3a5,5,0,0,0-5,5v38.8a14.5,14.5,0,0,1-29,0V298.7a34.14,34.14,0,0,1,34.1-34.1H478a34.14,34.14,0,0,1,34.1,34.1v82.6A32.69,32.69,0,0,1,479.5,413.7Z" transform="translate(0 -21.7)"/><circle class="cls-3" cx="193.3" cy="347.6" r="41.4"/><path class="cls-2" d="M193.3,425.2a55.9,55.9,0,1,1,55.9-55.9A56,56,0,0,1,193.3,425.2Zm0-82.7a26.8,26.8,0,1,0,26.8,26.8A26.8,26.8,0,0,0,193.3,342.5Z" transform="translate(0 -21.7)"/><path class="cls-3" d="M216.4,190.6V67.1a30.81,30.81,0,0,1,30.8-30.8H466.6a30.81,30.81,0,0,1,30.8,30.8V190.6a30.81,30.81,0,0,1-30.8,30.8H247.3A30.83,30.83,0,0,1,216.4,190.6Z" transform="translate(0 -21.7)"/><path class="cls-1" d="M466.6,236H247.3a45.49,45.49,0,0,1-45.4-45.4V67.1a45.49,45.49,0,0,1,45.4-45.4H466.7a45.49,45.49,0,0,1,45.4,45.4V190.6A45.65,45.65,0,0,1,466.6,236ZM247.3,50.8A16.3,16.3,0,0,0,231,67.1V190.6a16.3,16.3,0,0,0,16.3,16.3H466.7A16.3,16.3,0,0,0,483,190.6V67.1a16.3,16.3,0,0,0-16.3-16.3Z" transform="translate(0 -21.7)"/><path class="cls-1" d="M344.8,137.4h-4.9v-8.9c0-5.1-5.1-8.4-13-8.4s-13,3.3-13,8.4v8.9H305L330.1,87a9.5,9.5,0,0,0,.9-3.4c0-6.3-8.4-10.2-13-10.2a11.8,11.8,0,0,0-10.9,6.7l-34,66.9a10.79,10.79,0,0,0-1.4,5.1c0,5.6,3.7,9.4,9.1,9.4h33.1v14.2c0,5.9,6.7,8.5,13,8.5s13-2.7,13-8.5V161.5h4.9c4.4,0,8.5-5.9,8.5-12.1C353.3,143.6,350.6,137.4,344.8,137.4Z" transform="translate(0 -21.7)"/><path class="cls-1" d="M433.6,137.4h-4.9v-8.9c0-5.1-5.1-8.4-13-8.4s-13,3.3-13,8.4v8.9h-8.9L419,87a9.5,9.5,0,0,0,.9-3.4c0-6.3-8.4-10.2-13-10.2A11.8,11.8,0,0,0,396,80.1L362,147a10.79,10.79,0,0,0-1.4,5.1c0,5.6,3.7,9.4,9.1,9.4h33.1v14.2c0,5.9,6.7,8.5,13,8.5s13-2.7,13-8.5V161.5h4.9c4.4,0,8.5-5.9,8.5-12.1C442.2,143.6,439.5,137.4,433.6,137.4Z" transform="translate(0 -21.7)"/></svg>