<svg id="Layer_1" data-name="Layer 1" xmlns="http://www.w3.org/2000/svg" viewBox="0 0 512 494.4"><defs><style>.cls-1{fill:#f0bf5f;}.cls-2{fill:#cee8fa;}.cls-3{fill:#2d527c;}</style></defs><path class="cls-1" d="M121.3,467.9H86.8a13.9,13.9,0,0,1,0-27.8h34.5a13.9,13.9,0,1,1,0,27.8Z" transform="translate(0 -8.8)"/><path class="cls-1" d="M498.1,467.9H461.5a13.9,13.9,0,0,1,0-27.8h36.6a13.9,13.9,0,0,1,0,27.8Z" transform="translate(0 -8.8)"/><path class="cls-1" d="M482.8,466.2H461.5a13.9,13.9,0,1,1,0-27.8h7.4v-6.1c0-28.4-12.1-51.3-35-66.3-16.7-10.9-37.9-16.7-61.3-16.7H169.9a39.46,39.46,0,0,0-38.5,31.3l-12.2,57.8h4.2a13.9,13.9,0,1,1,0,27.8H102.1a13.83,13.83,0,0,1-13.6-16.7l15.7-74.6A67.59,67.59,0,0,1,170,321.5H372.7c28.8,0,55.3,7.3,76.5,21.2,30.7,20.1,47.6,51.9,47.6,89.6v20A14,14,0,0,1,482.8,466.2Z" transform="translate(0 -8.8)"/><path class="cls-1" d="M325.5,466.2H219.4a13.9,13.9,0,1,1,0-27.8H325.6a13.9,13.9,0,1,1-.1,27.8Z" transform="translate(0 -8.8)"/><path class="cls-2" d="M372.6,335.4c21,0,40.7,4.3,57.4,12.5l-19.5-84.5a47,47,0,0,0-45.4-35H241.2a46.7,46.7,0,0,0-43.3,29l-29.1,78Z" transform="translate(0 -8.8)"/><path class="cls-1" d="M430,361.8a14.34,14.34,0,0,1-6.1-1.4c-14.8-7.2-32.6-11.1-51.3-11.1H168.8a13.69,13.69,0,0,1-11.4-6,13.87,13.87,0,0,1-1.6-12.8l29.1-78c.1-.2.1-.3.2-.5a60.65,60.65,0,0,1,56.2-37.6H365.2A60.78,60.78,0,0,1,424,259.7c0,.1.1.3.1.4l19.5,84.5a13.88,13.88,0,0,1-4.9,14A13,13,0,0,1,430,361.8ZM188.9,321.5H372.7a153.54,153.54,0,0,1,38.1,4.7l-13.7-59.4a33.07,33.07,0,0,0-31.9-24.4h-124a32.91,32.91,0,0,0-30.4,20.2Z" transform="translate(0 -8.8)"/><path class="cls-1" d="M325.5,407.8a13.87,13.87,0,0,1-13.9-13.9V233.7a13.9,13.9,0,0,1,27.8,0V393.8A13.89,13.89,0,0,1,325.5,407.8Z" transform="translate(0 -8.8)"/><path class="cls-3" d="M422.5,503.2a55.1,55.1,0,1,1,55.1-55.1A55.14,55.14,0,0,1,422.5,503.2Zm0-82.4a27.3,27.3,0,1,0,27.3,27.3A27.34,27.34,0,0,0,422.5,420.8Z" transform="translate(0 -8.8)"/><path class="cls-3" d="M161.7,503.2a55.1,55.1,0,1,1,55.1-55.1A55.14,55.14,0,0,1,161.7,503.2Zm0-82.4A27.3,27.3,0,1,0,189,448.1,27.27,27.27,0,0,0,161.7,420.8Z" transform="translate(0 -8.8)"/><path class="cls-3" d="M189.2,199.5H13.9A13.87,13.87,0,0,1,0,185.6V22.7A13.87,13.87,0,0,1,13.9,8.8H189.2a13.87,13.87,0,0,1,13.9,13.9V185.6A13.87,13.87,0,0,1,189.2,199.5ZM27.8,171.7H175.3V36.6H27.8Z" transform="translate(0 -8.8)"/><path class="cls-3" d="M103.4,56.3H77.5c-5.3,0-9.3,3.4-9.3,8v79.6c0,4.8,4.9,8.1,11.8,8.1s11.8-3.3,11.8-8.1V119h10.3C123,119,135,107.7,135,87.9v-.6C135,67.3,123.8,56.3,103.4,56.3Zm-1.3,43.4H91.8V77.5h10.3c6.2,0,9.2,3.4,9.2,10.4v1.4C111.3,96.3,108.3,99.7,102.1,99.7Z" transform="translate(0 -8.8)"/><path class="cls-3" d="M101.5,316.5a13.87,13.87,0,0,1-13.9-13.9V187.4a13.9,13.9,0,1,1,27.8,0V302.6A13.81,13.81,0,0,1,101.5,316.5Z" transform="translate(0 -8.8)"/></svg>