<svg id="Layer_1" data-name="Layer 1" xmlns="http://www.w3.org/2000/svg" viewBox="0 0 512 476.2"><defs><style>.cls-1{fill:#f0bf5f;}.cls-2{fill:#cee8fa;}.cls-3{fill:#2d527c;}</style></defs><path class="cls-1" d="M432.2,385.7H79.8a14.55,14.55,0,0,1-14.6-14.6V355.7c0-105.2,85.6-190.8,190.8-190.8a191.47,191.47,0,0,1,58.3,9.1,14.64,14.64,0,1,1-8.9,27.9,161.42,161.42,0,0,0-49.4-7.7c-89.1,0-161.6,72.5-161.6,161.6v.8H417.6v-.8A160.8,160.8,0,0,0,369.8,241a14.64,14.64,0,1,1,20.6-20.8,189.52,189.52,0,0,1,56.5,135.5v15.4A14.7,14.7,0,0,1,432.2,385.7Z" transform="translate(0 -17.9)"/><path class="cls-1" d="M256,190.7a14.55,14.55,0,0,1-14.6-14.6V134.7a14.6,14.6,0,0,1,29.2,0v41.4A14.55,14.55,0,0,1,256,190.7Z" transform="translate(0 -17.9)"/><path class="cls-1" d="M291.8,145.9H220.2a14.6,14.6,0,1,1,0-29.2h71.6a14.6,14.6,0,0,1,0,29.2Z" transform="translate(0 -17.9)"/><rect class="cls-2" x="128" y="353.2" width="255.9" height="61.5"/><path class="cls-1" d="M384,447.2H128a14.55,14.55,0,0,1-14.6-14.6V371.1A14.55,14.55,0,0,1,128,356.5H384a14.55,14.55,0,0,1,14.6,14.6v61.5A14.62,14.62,0,0,1,384,447.2ZM142.7,418H369.4V385.7H142.7Z" transform="translate(0 -17.9)"/><path class="cls-2" d="M433.9,479.5H78.1a30.81,30.81,0,0,1-30.8-30.8h0a30.81,30.81,0,0,1,30.8-30.8H433.9a30.81,30.81,0,0,1,30.8,30.8h0A30.88,30.88,0,0,1,433.9,479.5Z" transform="translate(0 -17.9)"/><path class="cls-3" d="M433.9,494.1H78.1a45.4,45.4,0,0,1,0-90.8H433.9a45.4,45.4,0,1,1,0,90.8ZM78.1,432.6a16.1,16.1,0,0,0,0,32.2H433.9a16.1,16.1,0,1,0,0-32.2Z" transform="translate(0 -17.9)"/><path class="cls-3" d="M256,75.5a14.55,14.55,0,0,1-14.6-14.6V32.5a14.6,14.6,0,0,1,29.2,0V60.9A14.55,14.55,0,0,1,256,75.5Z" transform="translate(0 -17.9)"/><path class="cls-3" d="M497.4,273.9H469a14.6,14.6,0,0,1,0-29.2h28.4a14.6,14.6,0,1,1,0,29.2Z" transform="translate(0 -17.9)"/><path class="cls-3" d="M43,273.9H14.6a14.6,14.6,0,0,1,0-29.2H43a14.6,14.6,0,1,1,0,29.2Z" transform="translate(0 -17.9)"/><path class="cls-3" d="M396.3,133.6a14.3,14.3,0,0,1-10.3-4.3,14.67,14.67,0,0,1,0-20.7l20-20a14.64,14.64,0,1,1,20.7,20.7l-20.1,20.1A14.61,14.61,0,0,1,396.3,133.6Z" transform="translate(0 -17.9)"/><path class="cls-3" d="M115.7,133.6a14.3,14.3,0,0,1-10.3-4.3L85.3,109.2A14.64,14.64,0,0,1,106,88.5l20.1,20.1a14.65,14.65,0,0,1-10.4,25Z" transform="translate(0 -17.9)"/></svg>