<svg id="Layer_1" data-name="Layer 1" xmlns="http://www.w3.org/2000/svg" viewBox="0 0 512 443"><defs><style>.cls-1{fill:#2d527c;}.cls-2{fill:#f0bf5f;}.cls-3{fill:#cee8fa;}</style></defs><path class="cls-1" d="M462.4,477.5H49.6A49.66,49.66,0,0,1,0,427.9V84.1A49.66,49.66,0,0,1,49.6,34.5H320.5a14.1,14.1,0,1,1,0,28.2H49.6A21.42,21.42,0,0,0,28.2,84.1V427.9a21.42,21.42,0,0,0,21.4,21.4H462.4a21.42,21.42,0,0,0,21.4-21.4V84.1a21.42,21.42,0,0,0-21.4-21.4H401.8a14.1,14.1,0,0,1,0-28.2h60.6A49.66,49.66,0,0,1,512,84.1V427.9A49.66,49.66,0,0,1,462.4,477.5Z" transform="translate(0 -34.5)"/><path class="cls-1" d="M411.7,415.3H138.6a14.1,14.1,0,0,1,0-28.2H411.7a9.82,9.82,0,0,0,9.8-9.8V134.8a9.82,9.82,0,0,0-9.8-9.8H138.6a14.1,14.1,0,1,1,0-28.2H411.7a38.15,38.15,0,0,1,38.1,38.1V377.3A38.13,38.13,0,0,1,411.7,415.3Z" transform="translate(0 -34.5)"/><path class="cls-1" d="M76.3,415.3a14.08,14.08,0,0,1-14.1-14.1V110.8a14.1,14.1,0,0,1,28.2,0V401.2A14,14,0,0,1,76.3,415.3Z" transform="translate(0 -34.5)"/><path class="cls-2" d="M326.1,368.5A112.5,112.5,0,1,1,438.6,256,112.67,112.67,0,0,1,326.1,368.5Zm0-196.8A84.3,84.3,0,1,0,410.4,256,84.37,84.37,0,0,0,326.1,171.7Zm0,135.2A50.9,50.9,0,1,1,377,256,50.91,50.91,0,0,1,326.1,306.9Zm0-73.6A22.7,22.7,0,1,0,348.8,256,22.75,22.75,0,0,0,326.1,233.3Z" transform="translate(0 -34.5)"/><rect class="cls-3" x="76.3" y="274.1" width="62.2" height="45.7"/><path class="cls-1" d="M138.6,368.4H76.3a14.08,14.08,0,0,1-14.1-14.1V308.6a14.08,14.08,0,0,1,14.1-14.1h62.2a14.08,14.08,0,0,1,14.1,14.1v45.7A13.94,13.94,0,0,1,138.6,368.4ZM90.5,340.2h34V322.7h-34Z" transform="translate(0 -34.5)"/><rect class="cls-3" x="76.3" y="123.2" width="62.2" height="45.7"/><path class="cls-1" d="M138.6,217.5H76.3a14.08,14.08,0,0,1-14.1-14.1V157.7a14.08,14.08,0,0,1,14.1-14.1h62.2a14.08,14.08,0,0,1,14.1,14.1v45.7A13.94,13.94,0,0,1,138.6,217.5ZM90.5,189.3h34V171.8h-34Z" transform="translate(0 -34.5)"/><path class="cls-2" d="M259.7,336.5a14.42,14.42,0,0,1-10-4.1,14.18,14.18,0,0,1,0-20L290.1,272a14.14,14.14,0,0,1,20,20l-40.4,40.4A14.42,14.42,0,0,1,259.7,336.5Z" transform="translate(0 -34.5)"/><path class="cls-2" d="M354.7,241.5a14.42,14.42,0,0,1-10-4.1,14.18,14.18,0,0,1,0-20l37.8-37.8a14.14,14.14,0,0,1,20,20l-37.8,37.8A14.24,14.24,0,0,1,354.7,241.5Z" transform="translate(0 -34.5)"/><path class="cls-2" d="M296.8,240.8a14.42,14.42,0,0,1-10-4.1l-37.1-37.1a14.14,14.14,0,0,1,20-20l37.1,37.1a14.18,14.18,0,0,1,0,20A13.83,13.83,0,0,1,296.8,240.8Z" transform="translate(0 -34.5)"/><path class="cls-2" d="M392.5,336.5a14.42,14.42,0,0,1-10-4.1l-37.6-37.6a14.14,14.14,0,0,1,20-20l37.6,37.6a14.18,14.18,0,0,1,0,20A14.42,14.42,0,0,1,392.5,336.5Z" transform="translate(0 -34.5)"/></svg>