<svg id="Layer_1" data-name="Layer 1" xmlns="http://www.w3.org/2000/svg" viewBox="0 0 512 502"><defs><style>.cls-1{fill:#f0bf5f;}.cls-2{fill:#cee8fa;}.cls-3{fill:#2d527c;}</style></defs><path class="cls-1" d="M262.3,229.2a14.4,14.4,0,0,1-14.4-14.4V51.5C248,25.8,270.2,5,297.6,5s49.6,20.9,49.6,46.6a14.4,14.4,0,1,1-28.8,0c0-9.8-9.4-17.8-20.9-17.8s-20.9,8-20.9,17.8V214.9A14.23,14.23,0,0,1,262.3,229.2Z" transform="translate(0 -5)"/><path class="cls-1" d="M427.1,270.8a14.4,14.4,0,0,1-14.4-14.4V51.5C412.8,25.8,435,5,462.4,5S512,25.8,512,51.5a14.4,14.4,0,1,1-28.8,0c0-9.8-9.4-17.8-20.9-17.8s-20.9,8-20.9,17.8V256.4A14.26,14.26,0,0,1,427.1,270.8Z" transform="translate(0 -5)"/><path class="cls-1" d="M340,125H262.4a14.4,14.4,0,1,1,0-28.8H340a14.4,14.4,0,0,1,0,28.8Z" transform="translate(0 -5)"/><path class="cls-1" d="M340,229.2H262.4a14.4,14.4,0,1,1,0-28.8H340a14.4,14.4,0,0,1,0,28.8Z" transform="translate(0 -5)"/><path class="cls-1" d="M427.1,177.1H349.5a14.4,14.4,0,1,1,0-28.8h77.6a14.4,14.4,0,0,1,0,28.8Z" transform="translate(0 -5)"/><path class="cls-2" d="M471.7,375.1c0,17.2-20.5,31.1-45.9,31.1s-45.9-13.9-45.9-31.1c0,17.2-20.5,31.1-45.9,31.1s-45.9-13.9-45.9-31.1h.7c0,17.2-20.5,31.1-45.9,31.1S197,392.3,197,375.1c0,17.2-20.5,31.1-45.9,31.1s-45.9-13.9-45.9-31.1h.7c0,17.2-20.5,31.1-45.9,31.1s-45.9-13.9-45.9-31.1v-88c0,17.2,20.5,31.1,45.9,31.1s45.9-13.9,45.9-31.1h-.7c0,17.2,20.5,31.1,45.9,31.1S197,304.3,197,287.1c0,17.2,20.5,31.1,45.9,31.1s45.9-13.9,45.9-31.1h-.7c0,17.2,20.5,31.1,45.9,31.1s45.9-13.9,45.9-31.1c0,17.2,20.5,31.1,45.9,31.1s45.9-13.9,45.9-31.1v88Z" transform="translate(0 -5)"/><path class="cls-3" d="M425.8,420.6c-18.6,0-34.9-6-45.9-15.7-11,9.7-27.3,15.7-45.9,15.7-18.2,0-34.5-5.9-45.5-15.4-11,9.5-27.3,15.4-45.5,15.4-18.6,0-34.9-6-45.9-15.7-11,9.7-27.3,15.7-45.9,15.7-18.2,0-34.5-5.9-45.5-15.4-11,9.6-27.3,15.4-45.5,15.4-33.8,0-60.2-20-60.2-45.5v-88a14.4,14.4,0,1,1,28.8,0c0,7.7,13.8,16.7,31.5,16.7,16,0,28.3-6.9,31-13.9a26.2,26.2,0,0,1-.1-2.8,14.4,14.4,0,0,1,14.4-14.4h.7a14.4,14.4,0,0,1,14.4,14.4,26.2,26.2,0,0,1-.1,2.8c2.7,7,15,13.9,31,13.9,17.7,0,31.5-9,31.5-16.7a14.4,14.4,0,1,1,28.8,0c0,7.7,13.8,16.7,31.5,16.7,16,0,28.3-6.9,31-13.9a26.2,26.2,0,0,1-.1-2.8,14.4,14.4,0,0,1,14.4-14.4h.7a14.4,14.4,0,0,1,14.4,14.4,26.2,26.2,0,0,1-.1,2.8c2.7,7,15,13.9,31,13.9,17.7,0,31.5-9,31.5-16.7a14.4,14.4,0,1,1,28.8,0c0,7.7,13.8,16.7,31.5,16.7s31.5-9,31.5-16.7a14.4,14.4,0,0,1,28.8,0v88C486.1,400.6,459.6,420.6,425.8,420.6Zm-31.5-45.5c0,7.7,13.8,16.7,31.5,16.7s31.5-9,31.5-16.7V326a77,77,0,0,1-31.5,6.5c-18.6,0-34.9-6-45.9-15.7-11,9.7-27.3,15.7-45.9,15.7-18.2,0-34.5-5.9-45.5-15.4-11,9.6-27.3,15.4-45.5,15.4-18.6,0-34.9-6-45.9-15.7-11,9.7-27.3,15.7-45.9,15.7-18.2,0-34.5-5.9-45.5-15.4-11,9.6-27.3,15.4-45.5,15.4A77,77,0,0,1,28.7,326v49.1c0,7.7,13.8,16.7,31.5,16.7,16,0,28.3-6.9,31-13.9a26.2,26.2,0,0,1-.1-2.8,14.4,14.4,0,0,1,14.4-14.4h.7a14.4,14.4,0,0,1,14.4,14.4,26.2,26.2,0,0,1-.1,2.8c2.7,7,15,13.9,31,13.9,17.7,0,31.5-9,31.5-16.7a14.4,14.4,0,1,1,28.8,0c0,7.7,13.8,16.7,31.5,16.7,16,0,28.3-6.9,31-13.9a26.2,26.2,0,0,1-.1-2.8,14.4,14.4,0,0,1,14.4-14.4h.7a14.4,14.4,0,0,1,14.4,14.4,26.2,26.2,0,0,1-.1,2.8c2.7,7,15,13.9,31,13.9,17.7,0,31.5-9,31.5-16.7a14.1,14.1,0,1,1,28.2,0Z" transform="translate(0 -5)"/><path class="cls-3" d="M334.1,507c-18.4,0-34.6-5.9-45.5-15.4-11,9.5-27.2,15.4-45.5,15.4-18.6,0-34.9-6-45.9-15.7-11,9.7-27.3,15.7-45.9,15.7-33.8,0-60.2-20-60.2-45.5a14.4,14.4,0,0,1,14.4-14.4h.7a14.4,14.4,0,0,1,14.4,14.4,21.05,21.05,0,0,1-.2,2.5c2.5,7.1,15.2,14.3,31.1,14.3,17.7,0,31.5-9,31.5-16.7a14.4,14.4,0,1,1,28.8,0c0,7.7,13.8,16.7,31.5,16.7,15.7,0,28.2-7,30.9-14a25.28,25.28,0,0,1-.1-2.8,14.4,14.4,0,0,1,14.4-14.4h.7a14.4,14.4,0,0,1,14.4,14.4,27.15,27.15,0,0,1-.1,2.8c2.7,7,15.3,14,30.9,14,17.7,0,31.5-9,31.5-16.7a14.4,14.4,0,1,1,28.8,0C394.3,487.1,367.9,507,334.1,507Z" transform="translate(0 -5)"/></svg>