<svg id="Capa_1" data-name="Capa 1" xmlns="http://www.w3.org/2000/svg" viewBox="0 0 97.8 97.8"><defs><style>.cls-1{fill:#fff;}</style></defs><path class="cls-1" d="M50.7,33.7c0-6.8-4-17.3-11.8-17.3a8.82,8.82,0,0,0-6.6,3.1,10.94,10.94,0,0,0-2.1,7c0,6.3,3.7,16.7,11.7,16.7a9.72,9.72,0,0,0,6.4-2.6C50.5,38.4,50.7,35.4,50.7,33.7Z" transform="translate(0 0)"/><path class="cls-1" d="M45.7,58.4a14.12,14.12,0,0,0-2.2-.1,39,39,0,0,0-9.9,1.5c-2.1.7-8.1,3-8.1,9.7S32,81,42.1,81c9,0,13.8-4.3,13.8-10.2C55.9,66,52.8,63.5,45.7,58.4Z" transform="translate(0 0)"/><path class="cls-1" d="M48.9,0A48.9,48.9,0,1,0,97.8,48.9,48.91,48.91,0,0,0,48.9,0ZM37.5,84.9c-13.6,0-20.2-6.5-20.2-13.5,0-3.4,1.7-8.2,7.2-11.5,5.8-3.6,13.7-4,17.9-4.3-1.3-1.7-2.8-3.5-2.8-6.4a10.06,10.06,0,0,1,.9-3.7c-1,.1-2.1.2-3,.2C27.6,45.8,22,38.4,22,31a17.11,17.11,0,0,1,6-12.6c5.4-4.4,12.7-5.6,17.7-5.6H64.2l-6.1,3.8H52.3c2.2,1.8,6.7,5.5,6.7,12.7,0,7-3.9,10.3-7.9,13.4-1.2,1.2-2.6,2.5-2.6,4.6s1.4,3.2,2.4,4l3.4,2.6c4.1,3.5,7.9,6.7,7.9,13.2C62.2,76,53.6,84.9,37.5,84.9ZM78,47.7v9.5H73.4V47.7H64V43h9.4V33.6H78V43h9.4v4.7Z" transform="translate(0 0)"/></svg>